# xmcd
#
# Track frame offsets: 
#        150
#        22876
#        39938
#        63737
#        92578
#        110906
#        125755
#        141113
#        163334
#        183975
#        212286
#        246707
#        263281
#
# Disc length: 3757 seconds
#
# Revision: 15
# Processed by: cddbd v1.5.2PL0 Copyright (c) Steve Scherf et al.
# Submitted via: ExactAudioCopyFreeDBPlugin 1.0
#
DISCID=b80eab0d
DTITLE=Buddy Guy - Bring 'Em In
DYEAR=2005
DGENRE=Blues
TTITLE0=Now You're Gone
TTITLE1=Ninety Nine And One Half
TTITLE2=What Kind Of Woman Is This
TTITLE3=Somebody's Sleeping In My Bed
TTITLE4=I Put A Spell On You (feat. Carlos Santana)
TTITLE5=On A Saturday Night
TTITLE6=Ain't No Sunshine (feat. Tracy Chapman)
TTITLE7=I've Got Dreams To Remember (feat. John Mayer)
TTITLE8=Lay Lady Lay (feat. Anthony Hamilton and Robert Randolph)
TTITLE9=Cheaper To Keep Her-Blues In The Night
TTITLE10=Cut You Loose
TTITLE11=The Price You Gotta Pay (feat. Keith Richards)
TTITLE12=Do Your Thing
EXTD=Label: Zomba\nBestellnummer: 82876 72426 2\nFirma: Sony Music\nEV
EXTD=OE: 2005\nYEAR: 2005\n\n\n Für
EXTT0=
EXTT1=
EXTT2=
EXTT3=
EXTT4=
EXTT5=
EXTT6=
EXTT7=
EXTT8=
EXTT9=
EXTT10=
EXTT11=
EXTT12=
PLAYORDER=
